<?xml version="1.0" encoding="UTF-8" standalone="no"?>
<!DOCTYPE svg PUBLIC "-//W3C//DTD SVG 1.1//EN" "http://www.w3.org/Graphics/SVG/1.1/DTD/svg11.dtd">
<svg version="1.1" xmlns="http://www.w3.org/2000/svg" xmlns:xlink="http://www.w3.org/1999/xlink" preserveAspectRatio="xMidYMid meet" viewBox="0 0 341 565" width="341" height="565"><defs><path d="M252.11 243.05L332.69 472.58L171.51 472.58L10.34 472.58L90.92 243.05L171.51 13.52L252.11 243.05Z" id="a6uJwmfna"></path><path d="M197.05 87.76L222.59 162L171.51 162L120.45 162L145.98 87.76L171.51 13.52L197.05 87.76Z" id="a1w70gW80j"></path><path d="M253.92 495.28L336.31 477.34L171.51 477.34L6.72 477.34L89.11 495.28L171.51 513.23L253.92 495.28Z" id="aLDvNEIac"></path><path d="" id="b1f9YU7Rr"></path><path d="M201.07 415.31L230.61 472.58L171.51 472.58L112.42 472.58L141.96 415.31L171.51 358.04L201.07 415.31Z" id="agAKahkV8"></path><path d="M98.99 421.62L128.53 472.58L69.43 472.58L10.34 472.58L39.88 421.62L69.43 370.66L98.99 421.62Z" id="dLryvLsAC"></path><path d="M303.14 421.62L332.69 472.58L273.59 472.58L214.5 472.58L244.04 421.62L273.59 370.66L303.14 421.62Z" id="b313Q6CE9"></path><path d="M171.52 184.26L171.52 317.59" id="bonRtiZ1H"></path><path d="M222.59 243.05L268.19 368.34" id="caqPdfqP5"></path><path d="M79.82 362.3L125.42 237" id="f3ved3k7S"></path><path d="M79.82 533.24L6.72 549.26L6.72 517.23L6.72 485.2L79.82 501.21L152.92 517.23L79.82 533.24Z" id="f5hcWQUrqn"></path><path d="M263.21 533.24L336.31 549.26L336.31 517.23L336.31 485.2L263.21 501.21L190.11 517.23L263.21 533.24Z" id="aiBdCeEWC"></path><path d="M194.11 228.96L194.11 362.3" id="c1MbhN24nq"></path><path d="M148.92 228.96L148.92 362.3" id="m91Wc01MF"></path><path d="M334.69 477.23L334.69 548.23" id="atODlEU9"></path><path d="M8.65 477.23L8.65 548.23" id="bFPl8otoo"></path><path d="M194.11 528.76L324.53 556.48" id="b2z3r1rui"></path><path d="M148.92 528.76L18.5 556.48" id="jaHcQMRWm"></path></defs><g><g><g><g><use xlink:href="#a6uJwmfna" opacity="1" fill-opacity="0" stroke="#170822" stroke-width="5" stroke-opacity="1"></use></g></g><g><use xlink:href="#a1w70gW80j" opacity="1" fill="#000000" fill-opacity="1"></use></g><g><use xlink:href="#aLDvNEIac" opacity="1" fill="#000000" fill-opacity="1"></use><g><use xlink:href="#aLDvNEIac" opacity="1" fill-opacity="0" stroke="#170822" stroke-width="5" stroke-opacity="1"></use></g></g><g><g><use xlink:href="#b1f9YU7Rr" opacity="1" fill-opacity="0" stroke="#170822" stroke-width="2" stroke-opacity="1"></use></g></g><g><use xlink:href="#agAKahkV8" opacity="1" fill="#000000" fill-opacity="1"></use></g><g><use xlink:href="#dLryvLsAC" opacity="1" fill="#000000" fill-opacity="1"></use></g><g><use xlink:href="#b313Q6CE9" opacity="1" fill="#000000" fill-opacity="1"></use></g><g><g><use xlink:href="#bonRtiZ1H" opacity="1" fill-opacity="0" stroke="#000000" stroke-width="4" stroke-opacity="1"></use></g></g><g><g><use xlink:href="#caqPdfqP5" opacity="1" fill-opacity="0" stroke="#000000" stroke-width="4" stroke-opacity="1"></use></g></g><g><g><use xlink:href="#f3ved3k7S" opacity="1" fill-opacity="0" stroke="#000000" stroke-width="4" stroke-opacity="1"></use></g></g><g><use xlink:href="#f5hcWQUrqn" opacity="1" fill="#070505" fill-opacity="1"></use></g><g><use xlink:href="#aiBdCeEWC" opacity="1" fill="#070505" fill-opacity="1"></use></g><g><g><use xlink:href="#c1MbhN24nq" opacity="1" fill-opacity="0" stroke="#000000" stroke-width="4" stroke-opacity="1"></use></g></g><g><g><use xlink:href="#m91Wc01MF" opacity="1" fill-opacity="0" stroke="#000000" stroke-width="4" stroke-opacity="1"></use></g></g><g><g><use xlink:href="#atODlEU9" opacity="1" fill-opacity="0" stroke="#000000" stroke-width="5" stroke-opacity="1"></use></g></g><g><g><use xlink:href="#bFPl8otoo" opacity="1" fill-opacity="0" stroke="#000000" stroke-width="5" stroke-opacity="1"></use></g></g><g><g><use xlink:href="#b2z3r1rui" opacity="1" fill-opacity="0" stroke="#000000" stroke-width="4" stroke-opacity="1"></use></g></g><g><g><use xlink:href="#jaHcQMRWm" opacity="1" fill-opacity="0" stroke="#000000" stroke-width="4" stroke-opacity="1"></use></g></g></g></g></svg>